<svg width="269" height="251" viewBox="0 0 269 251" fill="none" xmlns="http://www.w3.org/2000/svg">
<g filter="url(#filter0_d_111_34)">
<mask id="mask0_111_34" style="mask-type:luminance" maskUnits="userSpaceOnUse" x="13" y="0" width="252" height="251">
<path d="M264.336 0H13.3358V251H264.336V0Z" fill="white"/>
</mask>
<g mask="url(#mask0_111_34)">
<path fill-rule="evenodd" clip-rule="evenodd" d="M26.5758 80.36C23.5358 80.93 19.8758 72.97 22.7558 71.66C68.1458 45.53 72.7158 67.17 117.656 77.5L118.226 75.89C119.656 71.93 119.596 73.15 124.126 74.42L126.316 75.03C133.796 77.11 130.486 76.52 136.526 72.66C150.176 63.96 170.826 65.98 184.606 74.87C196.556 82.57 197.476 89.03 200.316 101.53C202.926 112.99 240.266 146.65 264.336 169.16L252.976 180.97L237.186 164.53L221.006 182.32C216.636 187.12 213.776 192.23 206.586 191.72C201.726 191.37 189.066 184.08 184.116 181.63L163.426 171.36C159.706 167.83 157.956 163.23 158.316 157.45C152.906 158.14 148.246 156.86 144.286 153.69C130.026 142.31 137.486 134.65 135.506 122.19C135.366 121.33 135.196 120.45 134.976 119.6C131.746 106.53 124.596 102.38 114.166 97.6C110.856 96.09 111.206 96.88 112.466 93.45L112.976 92.06C73.8958 81.91 65.4658 61.75 26.5758 80.38V80.36ZM21.5958 79.99C23.6558 89.12 29.8458 93.68 29.8458 98.23C29.8458 102.78 27.7858 107.36 21.5958 107.36C15.4058 107.36 13.3458 102.8 13.3458 98.23C13.3458 93.66 19.5358 89.12 21.5958 79.99ZM172.406 144.33C173.146 141.9 172.836 139.14 170.566 136.96L179.326 129.63C182.736 127.2 186.556 126.08 190.866 126.61C202.636 128.06 220.236 148.36 229.306 156.7L211.756 176.56C201.526 161.83 189.966 142.57 172.396 144.35L172.406 144.33ZM169.076 154.11C170.076 153.4 171.266 153.07 172.646 153.13L181.126 168.9C176.956 167.55 160.106 160.59 169.076 154.11ZM179.886 151.5C185.976 154.48 194.776 164.98 203.456 176.13C205.066 177.44 203.256 181.26 199.186 178.11L193.856 175.27C183.986 169.69 182.866 164.42 179.886 151.49V151.5Z" fill="white"/>
</g>
<path d="M32.2458 152.49C27.8958 153.33 24.2858 155.3 21.3858 158.41C18.4858 161.38 16.3258 166.28 14.9858 173.39C14.5958 175.83 14.5858 177.63 14.9858 178.72C15.3858 179.75 15.5658 180.36 15.5658 180.51C11.5258 180.06 8.56583 178.83 6.76583 177.03C5.06583 175.29 4.62583 172.94 5.30583 169.99C6.29583 166.05 8.46583 162.49 11.7358 159.17C14.9958 155.65 19.4558 152.45 25.0958 149.48C30.6758 146.26 37.3758 143.71 45.2058 141.86C46.7858 141.48 48.8658 141.14 51.4758 140.79C56.1658 140.06 59.4858 139.43 61.4458 138.91C64.9158 137.98 67.8758 136.75 70.3458 135.26C70.1158 135.94 69.6558 137.41 68.9958 139.72C68.3158 141.94 67.2458 143.99 65.7258 145.9C64.3058 147.7 62.3858 149.15 60.0058 150.24C56.0758 151.2 51.4358 151.65 46.1358 151.57C43.8958 158.67 41.6458 165.88 39.4458 173.21C44.5958 172.35 49.6958 171.36 54.7658 170.26C54.0158 173.1 53.2958 175.96 52.5658 178.87C47.4358 179.97 42.2658 180.95 37.0358 181.78C33.5058 197.96 31.1758 216.06 29.6058 235.71C24.9558 237.64 20.3458 239.39 15.7358 240.98C17.0258 204.63 23.4858 175.55 32.2358 152.47L32.2458 152.49Z" fill="white"/>
<path d="M62.4758 220.24C59.1658 221.95 56.4658 222.12 54.3458 220.67C52.3158 219.08 51.2458 215.72 51.1458 210.62C51.1058 208.53 51.3658 205.71 51.9258 202.21C54.4358 188.76 57.3558 175.92 60.5158 163.57C65.4258 162.32 70.2858 161.01 75.1458 159.68C72.0858 172.54 69.1858 185.68 66.5458 199.14C66.3558 200.36 66.2358 201.45 66.2358 202.44C66.2358 205.57 67.3058 206.67 69.3858 205.76C71.3358 204.9 73.0058 203.31 74.3758 201.05C75.7658 198.74 76.8658 195.98 77.7158 192.71C80.1758 180.57 82.8058 168.58 85.5258 156.68C90.3358 155.25 95.1458 153.81 99.9358 152.39C97.2758 164.64 94.7159 176.8 92.2659 188.9C91.9859 190.01 91.8858 191.1 91.8858 192.21C91.9158 193.52 92.2358 194.33 92.8658 194.63C93.5758 194.84 94.6858 194.63 96.2158 193.96C98.1658 193.14 99.7958 191.69 101.146 189.64C102.556 187.57 103.656 185.15 104.426 182.34C105.856 181.81 107.296 181.28 108.716 180.75C106.386 188.26 103.366 193.98 99.6458 197.98C95.9658 202.09 92.1758 205.12 88.3258 207.02C85.3058 208.54 82.8658 208.94 81.0158 208.22C79.2358 207.41 78.1358 205.43 77.7458 202.28C75.4158 207.27 72.9658 211.17 70.3358 213.94C67.7758 216.73 65.1658 218.83 62.4658 220.23L62.4758 220.24Z" fill="white"/>
<path d="M32.2458 152.49C27.8958 153.33 24.2858 155.3 21.3858 158.41C18.4858 161.38 16.3258 166.28 14.9858 173.39C14.5958 175.83 14.5858 177.63 14.9858 178.72C15.3858 179.75 15.5658 180.36 15.5658 180.51C11.5258 180.06 8.56583 178.83 6.76583 177.03C5.06583 175.29 4.62583 172.94 5.30583 169.99C6.29583 166.05 8.46583 162.49 11.7358 159.17C14.9958 155.65 19.4558 152.45 25.0958 149.48C30.6758 146.26 37.3758 143.71 45.2058 141.86C46.7858 141.48 48.8658 141.14 51.4758 140.79C56.1658 140.06 59.4858 139.43 61.4458 138.91C64.9158 137.98 67.8758 136.75 70.3458 135.26C70.1158 135.94 69.6558 137.41 68.9958 139.72C68.3158 141.94 67.2458 143.99 65.7258 145.9C64.3058 147.7 62.3858 149.15 60.0058 150.24C56.0758 151.2 51.4358 151.65 46.1358 151.57C43.8958 158.67 41.6458 165.88 39.4458 173.21C44.5958 172.35 49.6958 171.36 54.7658 170.26C54.0158 173.1 53.2958 175.96 52.5658 178.87C47.4358 179.97 42.2658 180.95 37.0358 181.78C33.5058 197.96 31.1758 216.06 29.6058 235.71C24.9558 237.64 20.3458 239.39 15.7358 240.98C17.0258 204.63 23.4858 175.55 32.2358 152.47L32.2458 152.49Z" stroke="#FF6262" stroke-width="2"/>
<path d="M62.4758 220.24C59.1658 221.95 56.4658 222.12 54.3458 220.67C52.3158 219.08 51.2458 215.72 51.1458 210.62C51.1058 208.53 51.3658 205.71 51.9258 202.21C54.4358 188.76 57.3558 175.92 60.5158 163.57C65.4258 162.32 70.2858 161.01 75.1458 159.68C72.0858 172.54 69.1858 185.68 66.5458 199.14C66.3558 200.36 66.2358 201.45 66.2358 202.44C66.2358 205.57 67.3058 206.67 69.3858 205.76C71.3358 204.9 73.0058 203.31 74.3758 201.05C75.7658 198.74 76.8658 195.98 77.7158 192.71C80.1758 180.57 82.8058 168.58 85.5258 156.68C90.3358 155.25 95.1458 153.81 99.9358 152.39C97.2758 164.64 94.7159 176.8 92.2659 188.9C91.9859 190.01 91.8858 191.1 91.8858 192.21C91.9158 193.52 92.2358 194.33 92.8658 194.63C93.5758 194.84 94.6858 194.63 96.2158 193.96C98.1658 193.14 99.7958 191.69 101.146 189.64C102.556 187.57 103.656 185.15 104.426 182.34C105.856 181.81 107.296 181.28 108.716 180.75C106.386 188.26 103.366 193.98 99.6458 197.98C95.9658 202.09 92.1758 205.12 88.3258 207.02C85.3058 208.54 82.8658 208.94 81.0158 208.22C79.2358 207.41 78.1358 205.43 77.7458 202.28C75.4158 207.27 72.9658 211.17 70.3358 213.94C67.7758 216.73 65.1658 218.83 62.4658 220.23L62.4758 220.24Z" stroke="#FF6262" stroke-width="2"/>
<path d="M119.856 192.57C114.776 194.66 110.716 195.35 107.756 194.42C104.816 193.36 103.256 190.35 103.126 185.3C103.036 181 103.916 175.84 105.726 169.9C107.556 163.94 110.516 158.37 114.626 153.23C118.706 148.04 123.846 144.63 130.066 142.99C137.336 141.17 140.986 143.33 141.046 149.28C141.076 152.7 140.066 156.08 138.006 159.47C135.936 162.85 133.146 165.93 129.666 168.69C126.146 171.45 122.386 173.63 118.346 175.23C118.256 177.05 118.226 178.25 118.246 178.83C118.366 181.67 119.026 183.38 120.246 183.95C121.436 184.48 123.326 184.27 125.886 183.35C129.516 182.09 132.566 180.4 135.026 178.23C137.546 176.08 140.276 173.14 143.206 169.42C144.326 169.09 145.446 168.79 146.576 168.48C139.736 180.61 130.966 188.36 119.856 192.56V192.57ZM119.046 170.64C121.526 169.71 123.866 168.19 126.046 166.04C128.276 163.91 130.066 161.54 131.366 158.91C132.736 156.24 133.406 153.64 133.386 151.1C133.356 148.54 132.536 147.46 130.876 147.89C128.476 148.55 126.136 151.2 123.826 155.86C121.586 160.5 119.966 165.44 119.046 170.65V170.64Z" fill="white"/>
<path d="M119.856 192.57C114.776 194.66 110.716 195.35 107.756 194.42C104.816 193.36 103.256 190.35 103.126 185.3C103.036 181 103.916 175.84 105.726 169.9C107.556 163.94 110.516 158.37 114.626 153.23C118.706 148.04 123.846 144.63 130.066 142.99C137.336 141.17 140.986 143.33 141.046 149.28C141.076 152.7 140.066 156.08 138.006 159.47C135.936 162.85 133.146 165.93 129.666 168.69C126.146 171.45 122.386 173.63 118.346 175.23C118.256 177.05 118.226 178.25 118.246 178.83C118.366 181.67 119.026 183.38 120.246 183.95C121.436 184.48 123.326 184.27 125.886 183.35C129.516 182.09 132.566 180.4 135.026 178.23C137.546 176.08 140.276 173.14 143.206 169.42C144.326 169.09 145.446 168.79 146.576 168.48C139.736 180.61 130.966 188.36 119.856 192.56V192.57ZM119.046 170.64C121.526 169.71 123.866 168.19 126.046 166.04C128.276 163.91 130.066 161.54 131.366 158.91C132.736 156.24 133.406 153.64 133.386 151.1C133.356 148.54 132.536 147.46 130.876 147.89C128.476 148.55 126.136 151.2 123.826 155.86C121.586 160.5 119.966 165.44 119.046 170.65V170.64Z" stroke="#FF6262" stroke-width="2"/>
<path d="M153.716 181.54C150.596 182.37 147.986 182.31 145.936 181.3C143.906 180.32 142.806 178.23 142.626 175.04C142.546 173.68 142.746 171.82 143.186 169.45C146.376 153.96 149.726 137.91 153.166 121.44C158.046 119.98 162.896 118.55 167.776 117.15C164.116 134.28 160.546 151.06 157.116 167.32C156.866 168.2 156.776 169.11 156.806 170.03C156.846 171.1 157.166 171.81 157.796 172.14C158.456 172.4 159.516 172.35 160.956 172C162.846 171.53 164.596 170.46 166.176 168.79C167.776 167.05 168.916 165.03 169.546 162.72C170.946 162.4 172.336 162.09 173.706 161.79C171.416 168.19 168.456 172.85 164.746 175.79C161.066 178.7 157.406 180.6 153.716 181.55V181.54Z" fill="white"/>
<path d="M153.716 181.54C150.596 182.37 147.986 182.31 145.936 181.3C143.906 180.32 142.806 178.23 142.626 175.04C142.546 173.68 142.746 171.82 143.186 169.45C146.376 153.96 149.726 137.91 153.166 121.44C158.046 119.98 162.896 118.55 167.776 117.15C164.116 134.28 160.546 151.06 157.116 167.32C156.866 168.2 156.776 169.11 156.806 170.03C156.846 171.1 157.166 171.81 157.796 172.14C158.456 172.4 159.516 172.35 160.956 172C162.846 171.53 164.596 170.46 166.176 168.79C167.776 167.05 168.916 165.03 169.546 162.72C170.946 162.4 172.336 162.09 173.706 161.79C171.416 168.19 168.456 172.85 164.746 175.79C161.066 178.7 157.406 180.6 153.716 181.55V181.54Z" stroke="#FF6262" stroke-width="2"/>
<path d="M179.606 175.46C176.496 176.14 173.926 175.9 171.946 174.77C170.016 173.61 168.986 171.44 168.896 168.21C168.856 166.85 169.066 165.04 169.516 162.73C172.796 147.83 176.146 132.6 179.506 117.07C184.356 115.72 189.236 114.36 194.096 113C190.566 129.33 186.986 145.43 183.386 161.25C183.126 162.11 183.016 163.01 183.036 163.93C183.036 165.02 183.356 165.73 183.946 166.09C184.616 166.39 185.666 166.38 187.126 166.07C189.006 165.68 190.796 164.66 192.416 163.03C194.066 161.35 195.256 159.35 195.986 157.06C197.366 156.78 198.756 156.51 200.156 156.23C197.716 162.61 194.606 167.21 190.806 170.08C187.036 172.89 183.296 174.66 179.626 175.45L179.606 175.46Z" fill="white"/>
<path d="M179.606 175.46C176.496 176.14 173.926 175.9 171.946 174.77C170.016 173.61 168.986 171.44 168.896 168.21C168.856 166.85 169.066 165.04 169.516 162.73C172.796 147.83 176.146 132.6 179.506 117.07C184.356 115.72 189.236 114.36 194.096 113C190.566 129.33 186.986 145.43 183.386 161.25C183.126 162.11 183.016 163.01 183.036 163.93C183.036 165.02 183.356 165.73 183.946 166.09C184.616 166.39 185.666 166.38 187.126 166.07C189.006 165.68 190.796 164.66 192.416 163.03C194.066 161.35 195.256 159.35 195.986 157.06C197.366 156.78 198.756 156.51 200.156 156.23C197.716 162.61 194.606 167.21 190.806 170.08C187.036 172.89 183.296 174.66 179.626 175.45L179.606 175.46Z" stroke="#FF6262" stroke-width="2"/>
<path d="M210.906 188.74C207.876 189.29 205.236 188.95 202.926 187.73C200.706 186.55 199.596 184.74 199.616 182.25C199.636 179.91 200.386 177.85 201.826 176.1C203.286 174.31 205.186 172.79 207.516 171.47C209.856 170.18 213.026 168.67 217.026 166.98C217.386 165.72 217.766 164.46 218.126 163.2C214.606 166.99 210.476 169.32 205.746 170.2C202.566 170.81 199.996 170.52 198.036 169.3C196.116 168.05 195.156 165.82 195.146 162.57C195.146 161.22 195.396 159.4 195.926 157.11C198.096 147.8 200.226 138.43 202.316 129.01C207.116 128.14 211.926 127.28 216.736 126.43C214.616 136.27 212.356 146.1 209.976 155.92C209.766 156.6 209.656 157.3 209.666 158.01C209.656 160.41 210.646 161.42 212.676 161.04C214.576 160.69 216.216 159.74 217.586 158.24C218.966 156.66 220.086 154.69 220.916 152.26C223.166 143 225.236 133.75 227.166 124.53C232.096 123.63 237.026 122.7 241.996 121.76C238.766 138.3 234.646 155.15 229.786 171.92C228.116 177.38 225.486 181.37 221.946 183.92C218.546 186.46 214.866 188.08 210.896 188.77L210.906 188.74ZM208.876 182.03C210.046 181.81 211.196 181.12 212.266 179.9C213.356 178.75 214.236 177.02 214.896 174.71C215.356 173.04 215.796 171.37 216.256 169.72C212.676 171.32 209.906 172.95 207.956 174.6C206.006 176.25 205.036 178.09 205.006 180.1C204.986 180.75 205.366 181.27 206.136 181.65C206.916 182.1 207.826 182.22 208.876 182.03Z" fill="white"/>
<path d="M210.906 188.74C207.876 189.29 205.236 188.95 202.926 187.73C200.706 186.55 199.596 184.74 199.616 182.25C199.636 179.91 200.386 177.85 201.826 176.1C203.286 174.31 205.186 172.79 207.516 171.47C209.856 170.18 213.026 168.67 217.026 166.98C217.386 165.72 217.766 164.46 218.126 163.2C214.606 166.99 210.476 169.32 205.746 170.2C202.566 170.81 199.996 170.52 198.036 169.3C196.116 168.05 195.156 165.82 195.146 162.57C195.146 161.22 195.396 159.4 195.926 157.11C198.096 147.8 200.226 138.43 202.316 129.01C207.116 128.14 211.926 127.28 216.736 126.43C214.616 136.27 212.356 146.1 209.976 155.92C209.766 156.6 209.656 157.3 209.666 158.01C209.656 160.41 210.646 161.42 212.676 161.04C214.576 160.69 216.216 159.74 217.586 158.24C218.966 156.66 220.086 154.69 220.916 152.26C223.166 143 225.236 133.75 227.166 124.53C232.096 123.63 237.026 122.7 241.996 121.76C238.766 138.3 234.646 155.15 229.786 171.92C228.116 177.38 225.486 181.37 221.946 183.92C218.546 186.46 214.866 188.08 210.896 188.77L210.906 188.74ZM208.876 182.03C210.046 181.81 211.196 181.12 212.266 179.9C213.356 178.75 214.236 177.02 214.896 174.71C215.356 173.04 215.796 171.37 216.256 169.72C212.676 171.32 209.906 172.95 207.956 174.6C206.006 176.25 205.036 178.09 205.006 180.1C204.986 180.75 205.366 181.27 206.136 181.65C206.916 182.1 207.826 182.22 208.876 182.03Z" stroke="#FF6262" stroke-width="2"/>
</g>
<defs>
<filter id="filter0_d_111_34" x="0.000854492" y="59.2458" width="268.335" height="191.155" filterUnits="userSpaceOnUse" color-interpolation-filters="sRGB">
<feFlood flood-opacity="0" result="BackgroundImageFix"/>
<feColorMatrix in="SourceAlpha" type="matrix" values="0 0 0 0 0 0 0 0 0 0 0 0 0 0 0 0 0 0 127 0" result="hardAlpha"/>
<feOffset dy="4"/>
<feGaussianBlur stdDeviation="2"/>
<feComposite in2="hardAlpha" operator="out"/>
<feColorMatrix type="matrix" values="0 0 0 0 0 0 0 0 0 0 0 0 0 0 0 0 0 0 0.25 0"/>
<feBlend mode="normal" in2="BackgroundImageFix" result="effect1_dropShadow_111_34"/>
<feBlend mode="normal" in="SourceGraphic" in2="effect1_dropShadow_111_34" result="shape"/>
</filter>
</defs>
</svg>
